<mxfile host="Electron" modified="2023-07-10T17:52:36.072Z" agent="Mozilla/5.0 (Windows NT 10.0; Win64; x64) AppleWebKit/537.36 (KHTML, like Gecko) draw.io/21.2.1 Chrome/112.0.5615.87 Electron/24.1.2 Safari/537.36" etag="V8BwYpDkDuRALi1-saB8" version="21.2.1" type="device" pages="3">
  <diagram id="ZXl2DW8-Nd9x8iIuQtbE" name="ERD_ProceduresBox=Doctor">
    <mxGraphModel dx="1440" dy="2016" grid="1" gridSize="10" guides="1" tooltips="1" connect="1" arrows="1" fold="1" page="1" pageScale="1" pageWidth="827" pageHeight="1169" math="0" shadow="0">
      <root>
        <mxCell id="0" />
        <mxCell id="1" parent="0" />
        <mxCell id="hkTPRWvrsV8Ne4Nc_PmN-1" style="edgeStyle=orthogonalEdgeStyle;rounded=0;orthogonalLoop=1;jettySize=auto;html=1;entryX=0;entryY=0.25;entryDx=0;entryDy=0;fontSize=11;startArrow=ERmandOne;startFill=0;endArrow=ERzeroToMany;endFill=0;exitX=1;exitY=0.144;exitDx=0;exitDy=0;exitPerimeter=0;" parent="1" source="hkTPRWvrsV8Ne4Nc_PmN-3" target="hkTPRWvrsV8Ne4Nc_PmN-5" edge="1">
          <mxGeometry relative="1" as="geometry" />
        </mxCell>
        <mxCell id="hkTPRWvrsV8Ne4Nc_PmN-2" value="Клиника" style="swimlane;childLayout=stackLayout;horizontal=1;startSize=30;horizontalStack=0;rounded=1;fontSize=14;fontStyle=0;strokeWidth=2;resizeParent=0;resizeLast=1;shadow=0;dashed=0;align=center;" parent="1" vertex="1">
          <mxGeometry x="60" y="50" width="160" height="130" as="geometry" />
        </mxCell>
        <mxCell id="hkTPRWvrsV8Ne4Nc_PmN-3" value="*Номер клиники&lt;br&gt;Индекс&lt;br&gt;Город&lt;br&gt;Улица&lt;br&gt;Дом&lt;br&gt;Номер телефона" style="align=left;strokeColor=none;fillColor=none;spacingLeft=4;fontSize=12;verticalAlign=top;resizable=0;rotatable=0;part=1;html=1;" parent="hkTPRWvrsV8Ne4Nc_PmN-2" vertex="1">
          <mxGeometry y="30" width="160" height="100" as="geometry" />
        </mxCell>
        <mxCell id="hkTPRWvrsV8Ne4Nc_PmN-4" value="Врач" style="swimlane;childLayout=stackLayout;horizontal=1;startSize=30;horizontalStack=0;rounded=1;fontSize=14;fontStyle=0;strokeWidth=2;resizeParent=0;resizeLast=1;shadow=0;dashed=0;align=center;" parent="1" vertex="1">
          <mxGeometry x="340" y="50" width="160" height="150" as="geometry" />
        </mxCell>
        <mxCell id="hkTPRWvrsV8Ne4Nc_PmN-5" value="*Табельный номер&#xa;Фамилия&#xa;Имя&#xa;Отчество &#xa;Стаж работы&#xa;Образование&#xa;Специализация" style="align=left;strokeColor=none;fillColor=none;spacingLeft=4;fontSize=12;verticalAlign=top;resizable=0;rotatable=0;part=1;" parent="hkTPRWvrsV8Ne4Nc_PmN-4" vertex="1">
          <mxGeometry y="30" width="160" height="120" as="geometry" />
        </mxCell>
        <mxCell id="hkTPRWvrsV8Ne4Nc_PmN-6" value="Пациент" style="swimlane;childLayout=stackLayout;horizontal=1;startSize=30;horizontalStack=0;rounded=1;fontSize=14;fontStyle=0;strokeWidth=2;resizeParent=0;resizeLast=1;shadow=0;dashed=0;align=center;" parent="1" vertex="1">
          <mxGeometry x="920" y="30" width="160" height="170" as="geometry" />
        </mxCell>
        <mxCell id="hkTPRWvrsV8Ne4Nc_PmN-7" value="*Номер карты&#xa;Фамилия&#xa;Имя &#xa;Отчество&#xa;Дата рождения&#xa;Номер телефона&#xa;Серия и номер паспорта&#xa;Страховой полис&#xa;Электронная почта" style="align=left;strokeColor=none;fillColor=none;spacingLeft=4;fontSize=12;verticalAlign=top;resizable=0;rotatable=0;part=1;" parent="hkTPRWvrsV8Ne4Nc_PmN-6" vertex="1">
          <mxGeometry y="30" width="160" height="140" as="geometry" />
        </mxCell>
        <mxCell id="hkTPRWvrsV8Ne4Nc_PmN-8" value="Запись" style="swimlane;childLayout=stackLayout;horizontal=1;startSize=30;horizontalStack=0;rounded=1;fontSize=14;fontStyle=0;strokeWidth=2;resizeParent=0;resizeLast=1;shadow=0;dashed=0;align=center;" parent="1" vertex="1">
          <mxGeometry x="640" y="90" width="160" height="100" as="geometry" />
        </mxCell>
        <mxCell id="hkTPRWvrsV8Ne4Nc_PmN-9" value="*Номер&#xa;Дата&#xa;Время&#xa;Номер кабинет" style="align=left;strokeColor=none;fillColor=none;spacingLeft=4;fontSize=12;verticalAlign=top;resizable=0;rotatable=0;part=1;" parent="hkTPRWvrsV8Ne4Nc_PmN-8" vertex="1">
          <mxGeometry y="30" width="160" height="70" as="geometry" />
        </mxCell>
        <mxCell id="hkTPRWvrsV8Ne4Nc_PmN-10" style="edgeStyle=orthogonalEdgeStyle;rounded=0;orthogonalLoop=1;jettySize=auto;html=1;entryX=1.001;entryY=0.205;entryDx=0;entryDy=0;fontSize=11;startArrow=ERmandOne;startFill=0;endArrow=ERzeroToMany;endFill=0;exitX=-0.008;exitY=0.289;exitDx=0;exitDy=0;entryPerimeter=0;exitPerimeter=0;" parent="1" source="hkTPRWvrsV8Ne4Nc_PmN-7" target="hkTPRWvrsV8Ne4Nc_PmN-9" edge="1">
          <mxGeometry relative="1" as="geometry" />
        </mxCell>
        <mxCell id="hkTPRWvrsV8Ne4Nc_PmN-11" style="edgeStyle=orthogonalEdgeStyle;rounded=0;orthogonalLoop=1;jettySize=auto;html=1;entryX=0;entryY=0.25;entryDx=0;entryDy=0;fontSize=11;startArrow=ERmandOne;startFill=0;endArrow=ERzeroToMany;endFill=0;" parent="1" target="hkTPRWvrsV8Ne4Nc_PmN-9" edge="1">
          <mxGeometry relative="1" as="geometry">
            <mxPoint x="500" y="90" as="sourcePoint" />
          </mxGeometry>
        </mxCell>
        <mxCell id="hkTPRWvrsV8Ne4Nc_PmN-12" value="&lt;font style=&quot;font-size: 12px;&quot;&gt;Работает&lt;/font&gt;" style="text;html=1;strokeColor=none;fillColor=none;align=center;verticalAlign=middle;whiteSpace=wrap;rounded=0;fontSize=20;" parent="1" vertex="1">
          <mxGeometry x="250" y="50" width="60" height="30" as="geometry" />
        </mxCell>
        <mxCell id="hkTPRWvrsV8Ne4Nc_PmN-13" value="&lt;font style=&quot;font-size: 12px;&quot;&gt;Принимает&lt;/font&gt;" style="text;html=1;strokeColor=none;fillColor=none;align=center;verticalAlign=middle;whiteSpace=wrap;rounded=0;fontSize=20;" parent="1" vertex="1">
          <mxGeometry x="540" y="60" width="60" height="30" as="geometry" />
        </mxCell>
        <mxCell id="hkTPRWvrsV8Ne4Nc_PmN-14" value="&lt;font style=&quot;font-size: 12px;&quot;&gt;Приходит&lt;/font&gt;" style="text;html=1;strokeColor=none;fillColor=none;align=center;verticalAlign=middle;whiteSpace=wrap;rounded=0;fontSize=20;" parent="1" vertex="1">
          <mxGeometry x="827" y="60" width="60" height="30" as="geometry" />
        </mxCell>
        <mxCell id="hkTPRWvrsV8Ne4Nc_PmN-15" value="Результат анализа" style="swimlane;childLayout=stackLayout;horizontal=1;startSize=30;horizontalStack=0;rounded=1;fontSize=14;fontStyle=0;strokeWidth=2;resizeParent=0;resizeLast=1;shadow=0;dashed=0;align=center;arcSize=14;" parent="1" vertex="1">
          <mxGeometry x="1200" y="30" width="160" height="190" as="geometry" />
        </mxCell>
        <mxCell id="hkTPRWvrsV8Ne4Nc_PmN-16" value="*Номер&#xa;Название анализа&#xa;Дата сдачи&#xa;  Время сдачи&#xa;Дата готовности&#xa;  Время  готовности&#xa;Дата уведомления&#xa;  Время уведомления&#xa;Файл PDF" style="align=left;strokeColor=none;fillColor=none;spacingLeft=4;fontSize=12;verticalAlign=top;resizable=0;rotatable=0;part=1;" parent="hkTPRWvrsV8Ne4Nc_PmN-15" vertex="1">
          <mxGeometry y="30" width="160" height="160" as="geometry" />
        </mxCell>
        <mxCell id="hkTPRWvrsV8Ne4Nc_PmN-17" style="edgeStyle=orthogonalEdgeStyle;rounded=0;orthogonalLoop=1;jettySize=auto;html=1;fontSize=11;startArrow=ERmandOne;startFill=0;endArrow=ERzeroToMany;endFill=0;entryX=-0.025;entryY=0.644;entryDx=0;entryDy=0;entryPerimeter=0;" parent="1" target="hkTPRWvrsV8Ne4Nc_PmN-16" edge="1">
          <mxGeometry relative="1" as="geometry">
            <mxPoint x="1080" y="118" as="sourcePoint" />
            <mxPoint x="780" y="234" as="targetPoint" />
          </mxGeometry>
        </mxCell>
        <mxCell id="hkTPRWvrsV8Ne4Nc_PmN-18" value="&lt;font style=&quot;font-size: 12px;&quot;&gt;Получает&lt;/font&gt;" style="text;html=1;strokeColor=none;fillColor=none;align=center;verticalAlign=middle;whiteSpace=wrap;rounded=0;fontSize=20;" parent="1" vertex="1">
          <mxGeometry x="1110" y="90" width="60" height="30" as="geometry" />
        </mxCell>
        <mxCell id="SaJz_vqMNugFHD-PWeMp-2" value="Назначение" style="swimlane;childLayout=stackLayout;horizontal=1;startSize=30;horizontalStack=0;rounded=1;fontSize=14;fontStyle=0;strokeWidth=2;resizeParent=0;resizeLast=1;shadow=0;dashed=0;align=center;" parent="1" vertex="1">
          <mxGeometry x="640" y="255" width="160" height="100" as="geometry" />
        </mxCell>
        <mxCell id="SaJz_vqMNugFHD-PWeMp-3" value="*Номер&#xa;Дата&#xa;Время&#xa;Тип назначения" style="align=left;strokeColor=none;fillColor=none;spacingLeft=4;fontSize=12;verticalAlign=top;resizable=0;rotatable=0;part=1;" parent="SaJz_vqMNugFHD-PWeMp-2" vertex="1">
          <mxGeometry y="30" width="160" height="70" as="geometry" />
        </mxCell>
        <mxCell id="SaJz_vqMNugFHD-PWeMp-4" style="edgeStyle=orthogonalEdgeStyle;rounded=0;orthogonalLoop=1;jettySize=auto;html=1;entryX=0;entryY=0.5;entryDx=0;entryDy=0;fontSize=11;startArrow=ERmandOne;startFill=0;endArrow=ERzeroToMany;endFill=0;exitX=0.994;exitY=0.592;exitDx=0;exitDy=0;exitPerimeter=0;" parent="1" source="hkTPRWvrsV8Ne4Nc_PmN-5" target="SaJz_vqMNugFHD-PWeMp-2" edge="1">
          <mxGeometry relative="1" as="geometry">
            <mxPoint x="510" y="100" as="sourcePoint" />
            <mxPoint x="650" y="148" as="targetPoint" />
          </mxGeometry>
        </mxCell>
        <mxCell id="SaJz_vqMNugFHD-PWeMp-5" value="&lt;font style=&quot;font-size: 12px;&quot;&gt;Назначает&lt;/font&gt;" style="text;html=1;strokeColor=none;fillColor=none;align=center;verticalAlign=middle;whiteSpace=wrap;rounded=0;fontSize=20;" parent="1" vertex="1">
          <mxGeometry x="580" y="210" width="60" height="30" as="geometry" />
        </mxCell>
        <mxCell id="SaJz_vqMNugFHD-PWeMp-7" style="edgeStyle=orthogonalEdgeStyle;rounded=0;orthogonalLoop=1;jettySize=auto;html=1;entryX=1;entryY=0.5;entryDx=0;entryDy=0;fontSize=11;startArrow=ERmandOne;startFill=0;endArrow=ERzeroToMany;endFill=0;exitX=-0.019;exitY=0.629;exitDx=0;exitDy=0;exitPerimeter=0;" parent="1" source="hkTPRWvrsV8Ne4Nc_PmN-7" target="SaJz_vqMNugFHD-PWeMp-3" edge="1">
          <mxGeometry relative="1" as="geometry">
            <mxPoint x="929" y="110" as="sourcePoint" />
            <mxPoint x="810" y="144" as="targetPoint" />
          </mxGeometry>
        </mxCell>
        <mxCell id="SaJz_vqMNugFHD-PWeMp-8" value="&lt;font style=&quot;font-size: 12px;&quot;&gt;Принимает&lt;/font&gt;" style="text;html=1;strokeColor=none;fillColor=none;align=center;verticalAlign=middle;whiteSpace=wrap;rounded=0;fontSize=20;" parent="1" vertex="1">
          <mxGeometry x="870" y="230" width="60" height="30" as="geometry" />
        </mxCell>
        <mxCell id="Uo2wWta1ekSTrTEE99n0-2" value="Расписание &#xa;процедурного кабинета" style="swimlane;childLayout=stackLayout;horizontal=1;startSize=40;horizontalStack=0;rounded=1;fontSize=14;fontStyle=0;strokeWidth=2;resizeParent=0;resizeLast=1;shadow=0;dashed=0;align=center;" parent="1" vertex="1">
          <mxGeometry x="84" y="230" width="166" height="110" as="geometry" />
        </mxCell>
        <mxCell id="Uo2wWta1ekSTrTEE99n0-3" value="*Номер клиники&#xa;*День недели&#xa;Время начала&#xa;Время окончания" style="align=left;strokeColor=none;fillColor=none;spacingLeft=4;fontSize=12;verticalAlign=top;resizable=0;rotatable=0;part=1;" parent="Uo2wWta1ekSTrTEE99n0-2" vertex="1">
          <mxGeometry y="40" width="166" height="70" as="geometry" />
        </mxCell>
        <mxCell id="Uo2wWta1ekSTrTEE99n0-4" value="Устанавливает" style="edgeStyle=orthogonalEdgeStyle;rounded=0;orthogonalLoop=1;jettySize=auto;html=1;entryX=0;entryY=0.25;entryDx=0;entryDy=0;fontSize=11;startArrow=ERmandOne;startFill=0;endArrow=ERmany;endFill=0;exitX=0;exitY=0.75;exitDx=0;exitDy=0;" parent="1" source="hkTPRWvrsV8Ne4Nc_PmN-3" target="Uo2wWta1ekSTrTEE99n0-3" edge="1">
          <mxGeometry x="-0.1349" relative="1" as="geometry">
            <mxPoint x="230" y="156" as="sourcePoint" />
            <mxPoint x="350" y="170" as="targetPoint" />
            <Array as="points">
              <mxPoint x="40" y="155" />
              <mxPoint x="40" y="288" />
            </Array>
            <mxPoint as="offset" />
          </mxGeometry>
        </mxCell>
        <mxCell id="GjJm5sbr3TUNZWDOuJw_-1" value="&lt;div style=&quot;text-align: center;&quot;&gt;&lt;span style=&quot;font-size: 18px;&quot;&gt;&lt;b&gt;MedTech. ERD. Диаграмма сущностей&lt;/b&gt;&lt;/span&gt;&lt;/div&gt;" style="text;whiteSpace=wrap;html=1;" vertex="1" parent="1">
          <mxGeometry x="540" y="-40" width="560" height="70" as="geometry" />
        </mxCell>
      </root>
    </mxGraphModel>
  </diagram>
  <diagram id="FZimzOWbiY0pmrnXrLaN" name="DFD_контекстная">
    <mxGraphModel dx="1234" dy="1895" grid="1" gridSize="10" guides="1" tooltips="1" connect="1" arrows="1" fold="1" page="1" pageScale="1" pageWidth="827" pageHeight="1169" math="0" shadow="0">
      <root>
        <mxCell id="0" />
        <mxCell id="1" parent="0" />
        <mxCell id="EAW9twQUnGGo6U67r0AB-1" value="0" style="swimlane;childLayout=stackLayout;horizontal=1;startSize=30;horizontalStack=0;rounded=1;fontSize=14;fontStyle=0;strokeWidth=1;resizeParent=0;resizeLast=1;shadow=0;dashed=0;align=center;fillColor=#FFFFFF;" parent="1" vertex="1">
          <mxGeometry x="240" y="-550" width="460" height="110" as="geometry" />
        </mxCell>
        <mxCell id="EAW9twQUnGGo6U67r0AB-2" value="Приложение &quot;Вита&quot;" style="align=center;strokeColor=none;fillColor=none;spacingLeft=4;fontSize=12;verticalAlign=middle;resizable=0;rotatable=0;part=1;" parent="EAW9twQUnGGo6U67r0AB-1" vertex="1">
          <mxGeometry y="30" width="460" height="80" as="geometry" />
        </mxCell>
        <mxCell id="EAW9twQUnGGo6U67r0AB-3" value="Врач" style="html=1;dashed=0;whitespace=wrap;" parent="1" vertex="1">
          <mxGeometry x="240" y="-310" width="460" height="50" as="geometry" />
        </mxCell>
        <mxCell id="EAW9twQUnGGo6U67r0AB-4" value="Лаборатория" style="html=1;dashed=0;whitespace=wrap;" parent="1" vertex="1">
          <mxGeometry x="20" y="-510" width="110" height="50" as="geometry" />
        </mxCell>
        <mxCell id="EAW9twQUnGGo6U67r0AB-5" value="Пациент" style="html=1;dashed=0;whitespace=wrap;" parent="1" vertex="1">
          <mxGeometry x="240" y="-720" width="460" height="50" as="geometry" />
        </mxCell>
        <mxCell id="U1_i8zwQHB1odN1YmL2d-1" value="Назначение &lt;br&gt;на обследование" style="endArrow=classic;html=1;rounded=0;entryX=0.064;entryY=1.045;entryDx=0;entryDy=0;entryPerimeter=0;exitX=0.064;exitY=-0.014;exitDx=0;exitDy=0;exitPerimeter=0;" parent="1" source="EAW9twQUnGGo6U67r0AB-1" target="EAW9twQUnGGo6U67r0AB-5" edge="1">
          <mxGeometry width="50" height="50" relative="1" as="geometry">
            <mxPoint x="430" y="-600" as="sourcePoint" />
            <mxPoint x="433" y="-670" as="targetPoint" />
            <Array as="points" />
          </mxGeometry>
        </mxCell>
        <mxCell id="U1_i8zwQHB1odN1YmL2d-3" value="Уведомление о готовности &lt;br&gt;результатов анализов" style="endArrow=classic;html=1;rounded=0;exitX=0.25;exitY=0;exitDx=0;exitDy=0;" parent="1" edge="1">
          <mxGeometry x="0.5" width="50" height="50" relative="1" as="geometry">
            <mxPoint x="450" y="-550" as="sourcePoint" />
            <mxPoint x="450" y="-670" as="targetPoint" />
            <Array as="points" />
            <mxPoint as="offset" />
          </mxGeometry>
        </mxCell>
        <mxCell id="U1_i8zwQHB1odN1YmL2d-6" value="Расписание &lt;br&gt;процедурного кабинета" style="endArrow=classic;html=1;rounded=0;exitX=0.229;exitY=-0.016;exitDx=0;exitDy=0;exitPerimeter=0;entryX=0.228;entryY=1;entryDx=0;entryDy=0;entryPerimeter=0;" parent="1" source="EAW9twQUnGGo6U67r0AB-1" target="EAW9twQUnGGo6U67r0AB-5" edge="1">
          <mxGeometry x="-0.5099" width="50" height="50" relative="1" as="geometry">
            <mxPoint x="330" y="-570" as="sourcePoint" />
            <mxPoint x="431" y="-539" as="targetPoint" />
            <Array as="points" />
            <mxPoint as="offset" />
          </mxGeometry>
        </mxCell>
        <mxCell id="U1_i8zwQHB1odN1YmL2d-8" value="Запрос результатов &lt;br&gt;анализов" style="endArrow=classic;html=1;rounded=0;entryX=0.642;entryY=-0.025;entryDx=0;entryDy=0;entryPerimeter=0;exitX=0.637;exitY=0.995;exitDx=0;exitDy=0;exitPerimeter=0;" parent="1" source="EAW9twQUnGGo6U67r0AB-5" target="EAW9twQUnGGo6U67r0AB-1" edge="1">
          <mxGeometry x="-0.0139" y="3" width="50" height="50" relative="1" as="geometry">
            <mxPoint x="610" y="-650" as="sourcePoint" />
            <mxPoint x="490" y="-540" as="targetPoint" />
            <Array as="points" />
            <mxPoint as="offset" />
          </mxGeometry>
        </mxCell>
        <mxCell id="U1_i8zwQHB1odN1YmL2d-9" value="Результаты &lt;br&gt;анализов" style="endArrow=classic;html=1;rounded=0;exitX=0.803;exitY=-0.014;exitDx=0;exitDy=0;exitPerimeter=0;entryX=0.8;entryY=1.07;entryDx=0;entryDy=0;entryPerimeter=0;" parent="1" source="EAW9twQUnGGo6U67r0AB-1" target="EAW9twQUnGGo6U67r0AB-5" edge="1">
          <mxGeometry x="-0.4828" y="-2" width="50" height="50" relative="1" as="geometry">
            <mxPoint x="460" y="-540" as="sourcePoint" />
            <mxPoint x="596" y="-669" as="targetPoint" />
            <Array as="points" />
            <mxPoint as="offset" />
          </mxGeometry>
        </mxCell>
        <mxCell id="U1_i8zwQHB1odN1YmL2d-10" value="Назначение &lt;br&gt;на лечение" style="endArrow=classic;html=1;rounded=0;entryX=0.949;entryY=1.045;entryDx=0;entryDy=0;entryPerimeter=0;exitX=0.955;exitY=0.009;exitDx=0;exitDy=0;exitPerimeter=0;" parent="1" source="EAW9twQUnGGo6U67r0AB-1" target="EAW9twQUnGGo6U67r0AB-5" edge="1">
          <mxGeometry x="0.5974" width="50" height="50" relative="1" as="geometry">
            <mxPoint x="405" y="-450" as="sourcePoint" />
            <mxPoint x="279" y="-658" as="targetPoint" />
            <Array as="points" />
            <mxPoint y="-1" as="offset" />
          </mxGeometry>
        </mxCell>
        <mxCell id="U1_i8zwQHB1odN1YmL2d-11" value="Результаты &lt;br&gt;анализов" style="endArrow=classic;html=1;rounded=0;exitX=1;exitY=0.5;exitDx=0;exitDy=0;entryX=0.001;entryY=0.387;entryDx=0;entryDy=0;entryPerimeter=0;" parent="1" source="EAW9twQUnGGo6U67r0AB-4" target="EAW9twQUnGGo6U67r0AB-2" edge="1">
          <mxGeometry x="-0.1096" y="-3" width="50" height="50" relative="1" as="geometry">
            <mxPoint x="470" y="-350" as="sourcePoint" />
            <mxPoint x="240" y="-460" as="targetPoint" />
            <Array as="points" />
            <mxPoint as="offset" />
          </mxGeometry>
        </mxCell>
        <mxCell id="U1_i8zwQHB1odN1YmL2d-13" value="Назначение &lt;br&gt;на обследование" style="endArrow=classic;html=1;rounded=0;entryX=0.077;entryY=1.028;entryDx=0;entryDy=0;entryPerimeter=0;exitX=0.077;exitY=-0.03;exitDx=0;exitDy=0;exitPerimeter=0;" parent="1" source="EAW9twQUnGGo6U67r0AB-3" target="EAW9twQUnGGo6U67r0AB-2" edge="1">
          <mxGeometry width="50" height="50" relative="1" as="geometry">
            <mxPoint x="240" y="-355" as="sourcePoint" />
            <mxPoint x="279" y="-658" as="targetPoint" />
            <Array as="points" />
          </mxGeometry>
        </mxCell>
        <mxCell id="U1_i8zwQHB1odN1YmL2d-14" value="Назначение &lt;br&gt;на лечение" style="endArrow=classic;html=1;rounded=0;entryX=0.96;entryY=1.044;entryDx=0;entryDy=0;exitX=0.968;exitY=0.02;exitDx=0;exitDy=0;exitPerimeter=0;entryPerimeter=0;" parent="1" source="EAW9twQUnGGo6U67r0AB-3" target="EAW9twQUnGGo6U67r0AB-2" edge="1">
          <mxGeometry x="0.5974" width="50" height="50" relative="1" as="geometry">
            <mxPoint x="555" y="-470" as="sourcePoint" />
            <mxPoint x="687" y="-658" as="targetPoint" />
            <Array as="points" />
            <mxPoint y="-1" as="offset" />
          </mxGeometry>
        </mxCell>
        <mxCell id="U1_i8zwQHB1odN1YmL2d-15" value="Запрос результатов &lt;br&gt;анализов" style="endArrow=classic;html=1;rounded=0;entryX=0.642;entryY=0.997;entryDx=0;entryDy=0;exitX=0.651;exitY=-0.005;exitDx=0;exitDy=0;exitPerimeter=0;entryPerimeter=0;" parent="1" source="EAW9twQUnGGo6U67r0AB-3" target="EAW9twQUnGGo6U67r0AB-2" edge="1">
          <mxGeometry x="-0.5411" y="-3" width="50" height="50" relative="1" as="geometry">
            <mxPoint x="543" y="-660" as="sourcePoint" />
            <mxPoint x="508" y="-542" as="targetPoint" />
            <Array as="points" />
            <mxPoint as="offset" />
          </mxGeometry>
        </mxCell>
        <mxCell id="U1_i8zwQHB1odN1YmL2d-17" value="Результаты &lt;br&gt;анализов" style="endArrow=classic;html=1;rounded=0;entryX=0.811;entryY=-0.005;entryDx=0;entryDy=0;entryPerimeter=0;exitX=0.805;exitY=1.028;exitDx=0;exitDy=0;exitPerimeter=0;" parent="1" source="EAW9twQUnGGo6U67r0AB-2" target="EAW9twQUnGGo6U67r0AB-3" edge="1">
          <mxGeometry x="-0.2298" y="-5" width="50" height="50" relative="1" as="geometry">
            <mxPoint x="450" y="-440" as="sourcePoint" />
            <mxPoint x="606" y="-659" as="targetPoint" />
            <Array as="points" />
            <mxPoint as="offset" />
          </mxGeometry>
        </mxCell>
        <mxCell id="9NMPc4JdDQeEAG2CAaYq-1" value="&lt;div style=&quot;text-align: center;&quot;&gt;&lt;span style=&quot;font-size: 18px;&quot;&gt;&lt;b&gt;MedTech. Data Flow&amp;nbsp;&amp;nbsp;&lt;/b&gt;&lt;/span&gt;&lt;/div&gt;&lt;div style=&quot;text-align: center;&quot;&gt;&lt;span style=&quot;font-size: 18px;&quot;&gt;&lt;b&gt;Контекстная диаграмма потоков данных&lt;/b&gt;&lt;/span&gt;&lt;/div&gt;" style="text;whiteSpace=wrap;html=1;" vertex="1" parent="1">
          <mxGeometry x="290" y="-780" width="450" height="40" as="geometry" />
        </mxCell>
      </root>
    </mxGraphModel>
  </diagram>
  <diagram id="5hfhekeH1kYWlCb4wukP" name="DFD_логические">
    <mxGraphModel dx="1440" dy="2016" grid="1" gridSize="10" guides="1" tooltips="1" connect="1" arrows="1" fold="1" page="1" pageScale="1" pageWidth="827" pageHeight="1169" math="0" shadow="0">
      <root>
        <mxCell id="0" />
        <mxCell id="1" parent="0" />
        <mxCell id="zHWXq6wu1UEvpox1hKBq-1" value="Пациент" style="html=1;fontSize=11;" parent="1" vertex="1">
          <mxGeometry x="410" y="-660" width="770" height="50" as="geometry" />
        </mxCell>
        <mxCell id="zHWXq6wu1UEvpox1hKBq-2" value="Врач" style="html=1;fontSize=11;" parent="1" vertex="1">
          <mxGeometry x="420" y="-210" width="760" height="50" as="geometry" />
        </mxCell>
        <mxCell id="zHWXq6wu1UEvpox1hKBq-3" value="Лаборатория" style="html=1;fontSize=11;" parent="1" vertex="1">
          <mxGeometry x="190" y="-510" width="110" height="50" as="geometry" />
        </mxCell>
        <mxCell id="zHWXq6wu1UEvpox1hKBq-4" value="1" style="swimlane;childLayout=stackLayout;horizontal=1;startSize=30;horizontalStack=0;rounded=1;fontSize=14;fontStyle=0;strokeWidth=1;resizeParent=0;resizeLast=1;shadow=0;dashed=0;align=center;fillColor=#FFFFFF;" parent="1" vertex="1">
          <mxGeometry x="414" y="-470" width="356" height="110" as="geometry" />
        </mxCell>
        <mxCell id="zHWXq6wu1UEvpox1hKBq-5" value="Пройти обследование" style="align=center;strokeColor=none;fillColor=none;spacingLeft=4;fontSize=12;verticalAlign=middle;resizable=0;rotatable=0;part=1;" parent="zHWXq6wu1UEvpox1hKBq-4" vertex="1">
          <mxGeometry y="30" width="356" height="80" as="geometry" />
        </mxCell>
        <mxCell id="IhU7oc8Vnzvh6mDa7Yuc-6" value="Назначение &lt;br&gt;на обследование" style="endArrow=classic;html=1;rounded=0;exitX=0.077;exitY=-0.005;exitDx=0;exitDy=0;exitPerimeter=0;entryX=0.04;entryY=1.06;entryDx=0;entryDy=0;entryPerimeter=0;" parent="1" source="zHWXq6wu1UEvpox1hKBq-4" target="zHWXq6wu1UEvpox1hKBq-1" edge="1">
          <mxGeometry width="50" height="50" relative="1" as="geometry">
            <mxPoint x="1060" y="-530" as="sourcePoint" />
            <mxPoint x="440" y="-590" as="targetPoint" />
            <Array as="points" />
          </mxGeometry>
        </mxCell>
        <mxCell id="IhU7oc8Vnzvh6mDa7Yuc-7" value="Уведомление о готовности &lt;br&gt;результатов анализов" style="endArrow=classic;html=1;rounded=0;exitX=0.412;exitY=-0.005;exitDx=0;exitDy=0;entryX=0.195;entryY=1.036;entryDx=0;entryDy=0;entryPerimeter=0;exitPerimeter=0;" parent="1" source="zHWXq6wu1UEvpox1hKBq-4" target="zHWXq6wu1UEvpox1hKBq-1" edge="1">
          <mxGeometry x="0.5" width="50" height="50" relative="1" as="geometry">
            <mxPoint x="1080" y="-480" as="sourcePoint" />
            <mxPoint x="1080" y="-600" as="targetPoint" />
            <Array as="points" />
            <mxPoint as="offset" />
          </mxGeometry>
        </mxCell>
        <mxCell id="IhU7oc8Vnzvh6mDa7Yuc-8" value="Расписание&lt;br style=&quot;border-color: var(--border-color);&quot;&gt;процедурного кабинета" style="endArrow=none;html=1;rounded=0;exitX=0.125;exitY=1.06;exitDx=0;exitDy=0;entryX=0.25;entryY=0;entryDx=0;entryDy=0;exitPerimeter=0;startArrow=classic;startFill=1;endFill=0;" parent="1" source="zHWXq6wu1UEvpox1hKBq-1" target="zHWXq6wu1UEvpox1hKBq-4" edge="1">
          <mxGeometry x="0.4164" y="-1" width="50" height="50" relative="1" as="geometry">
            <mxPoint x="972" y="-589" as="sourcePoint" />
            <mxPoint x="1061" y="-469" as="targetPoint" />
            <Array as="points" />
            <mxPoint y="1" as="offset" />
          </mxGeometry>
        </mxCell>
        <mxCell id="IhU7oc8Vnzvh6mDa7Yuc-9" value="Запрос результатов &lt;br&gt;анализов" style="endArrow=classic;html=1;rounded=0;entryX=0.572;entryY=-0.016;entryDx=0;entryDy=0;entryPerimeter=0;exitX=0.266;exitY=1.036;exitDx=0;exitDy=0;exitPerimeter=0;" parent="1" source="zHWXq6wu1UEvpox1hKBq-1" target="zHWXq6wu1UEvpox1hKBq-4" edge="1">
          <mxGeometry x="-0.0139" y="3" width="50" height="50" relative="1" as="geometry">
            <mxPoint x="1240" y="-580" as="sourcePoint" />
            <mxPoint x="1120" y="-470" as="targetPoint" />
            <Array as="points" />
            <mxPoint as="offset" />
          </mxGeometry>
        </mxCell>
        <mxCell id="IhU7oc8Vnzvh6mDa7Yuc-10" value="Результаты &lt;br&gt;анализов" style="endArrow=classic;html=1;rounded=0;exitX=0.858;exitY=-0.016;exitDx=0;exitDy=0;exitPerimeter=0;entryX=0.396;entryY=1.013;entryDx=0;entryDy=0;entryPerimeter=0;" parent="1" source="zHWXq6wu1UEvpox1hKBq-4" target="zHWXq6wu1UEvpox1hKBq-1" edge="1">
          <mxGeometry x="-0.4828" y="-2" width="50" height="50" relative="1" as="geometry">
            <mxPoint x="1090" y="-470" as="sourcePoint" />
            <mxPoint x="1226" y="-599" as="targetPoint" />
            <Array as="points" />
            <mxPoint as="offset" />
          </mxGeometry>
        </mxCell>
        <mxCell id="IhU7oc8Vnzvh6mDa7Yuc-11" value="Назначение &lt;br&gt;на лечение" style="endArrow=classic;html=1;rounded=0;entryX=0.93;entryY=1.036;entryDx=0;entryDy=0;entryPerimeter=0;exitX=0.839;exitY=-0.016;exitDx=0;exitDy=0;exitPerimeter=0;" parent="1" source="IhU7oc8Vnzvh6mDa7Yuc-19" target="zHWXq6wu1UEvpox1hKBq-1" edge="1">
          <mxGeometry x="0.5974" width="50" height="50" relative="1" as="geometry">
            <mxPoint x="1455" y="-360" as="sourcePoint" />
            <mxPoint x="881.6199999999999" y="-610.55" as="targetPoint" />
            <Array as="points" />
            <mxPoint y="-1" as="offset" />
          </mxGeometry>
        </mxCell>
        <mxCell id="IhU7oc8Vnzvh6mDa7Yuc-12" value="Результаты &lt;br&gt;анализов" style="endArrow=classic;html=1;rounded=0;exitX=1;exitY=0.5;exitDx=0;exitDy=0;entryX=-0.005;entryY=0.368;entryDx=0;entryDy=0;entryPerimeter=0;" parent="1" source="zHWXq6wu1UEvpox1hKBq-3" target="zHWXq6wu1UEvpox1hKBq-5" edge="1">
          <mxGeometry x="-0.1096" y="-3" width="50" height="50" relative="1" as="geometry">
            <mxPoint x="1100" y="-280" as="sourcePoint" />
            <mxPoint x="870" y="-390" as="targetPoint" />
            <Array as="points" />
            <mxPoint as="offset" />
          </mxGeometry>
        </mxCell>
        <mxCell id="IhU7oc8Vnzvh6mDa7Yuc-13" value="Назначение &lt;br&gt;на обследование" style="endArrow=classic;html=1;rounded=0;entryX=0.103;entryY=1.015;entryDx=0;entryDy=0;entryPerimeter=0;exitX=0.039;exitY=-0.022;exitDx=0;exitDy=0;exitPerimeter=0;" parent="1" source="zHWXq6wu1UEvpox1hKBq-2" target="zHWXq6wu1UEvpox1hKBq-5" edge="1">
          <mxGeometry width="50" height="50" relative="1" as="geometry">
            <mxPoint x="870" y="-285" as="sourcePoint" />
            <mxPoint x="909" y="-588" as="targetPoint" />
            <Array as="points" />
          </mxGeometry>
        </mxCell>
        <mxCell id="IhU7oc8Vnzvh6mDa7Yuc-14" value="Назначение &lt;br&gt;на лечение" style="endArrow=classic;html=1;rounded=0;entryX=0.839;entryY=1.015;entryDx=0;entryDy=0;entryPerimeter=0;" parent="1" target="IhU7oc8Vnzvh6mDa7Yuc-20" edge="1">
          <mxGeometry x="0.5974" width="50" height="50" relative="1" as="geometry">
            <mxPoint x="1127" y="-210" as="sourcePoint" />
            <mxPoint x="1737" y="-568" as="targetPoint" />
            <Array as="points" />
            <mxPoint y="-1" as="offset" />
          </mxGeometry>
        </mxCell>
        <mxCell id="IhU7oc8Vnzvh6mDa7Yuc-19" value="2" style="swimlane;childLayout=stackLayout;horizontal=1;startSize=30;horizontalStack=0;rounded=1;fontSize=14;fontStyle=0;strokeWidth=1;resizeParent=0;resizeLast=1;shadow=0;dashed=0;align=center;fillColor=#FFFFFF;" parent="1" vertex="1">
          <mxGeometry x="850" y="-470" width="330" height="110" as="geometry" />
        </mxCell>
        <mxCell id="IhU7oc8Vnzvh6mDa7Yuc-20" value="Пройти&#xa;медикаментозное &#xa;лечение" style="align=center;strokeColor=none;fillColor=none;spacingLeft=4;fontSize=12;verticalAlign=middle;resizable=0;rotatable=0;part=1;" parent="IhU7oc8Vnzvh6mDa7Yuc-19" vertex="1">
          <mxGeometry y="30" width="330" height="80" as="geometry" />
        </mxCell>
        <mxCell id="_ghf7tnCaNYiLIRfCHn--1" value="D1&amp;nbsp;&lt;span style=&quot;white-space: pre;&quot;&gt;   &lt;/span&gt;Результат анализа" style="html=1;dashed=0;whiteSpace=wrap;shape=mxgraph.dfd.dataStoreID;align=left;spacingLeft=3;points=[[0,0],[0.5,0],[1,0],[0,0.5],[1,0.5],[0,1],[0.5,1],[1,1]];" parent="1" vertex="1">
          <mxGeometry x="600" y="-260" width="140" height="30" as="geometry" />
        </mxCell>
        <mxCell id="fPSS0yAdCSyzKIoXvEiX-3" value="Результаты &lt;br&gt;анализов" style="endArrow=classic;html=1;rounded=0;entryX=0.669;entryY=-0.096;entryDx=0;entryDy=0;exitX=0.853;exitY=1.001;exitDx=0;exitDy=0;exitPerimeter=0;edgeStyle=orthogonalEdgeStyle;entryPerimeter=0;startArrow=classic;startFill=1;" parent="1" source="zHWXq6wu1UEvpox1hKBq-5" target="_ghf7tnCaNYiLIRfCHn--1" edge="1">
          <mxGeometry x="-0.5057" y="12" width="50" height="50" relative="1" as="geometry">
            <mxPoint x="729" y="-462" as="sourcePoint" />
            <mxPoint x="725" y="-599" as="targetPoint" />
            <Array as="points">
              <mxPoint x="718" y="-300" />
              <mxPoint x="694" y="-300" />
            </Array>
            <mxPoint y="1" as="offset" />
          </mxGeometry>
        </mxCell>
        <mxCell id="hC8X2ESgWbDBqYPb2rQp-1" value="D2&amp;nbsp;&lt;span style=&quot;white-space: pre;&quot;&gt;   &lt;/span&gt;Назначение" style="html=1;dashed=0;whiteSpace=wrap;shape=mxgraph.dfd.dataStoreID;align=left;spacingLeft=3;points=[[0,0],[0.5,0],[1,0],[0,0.5],[1,0.5],[0,1],[0.5,1],[1,1]];" parent="1" vertex="1">
          <mxGeometry x="850" y="-260" width="140" height="30" as="geometry" />
        </mxCell>
        <mxCell id="hC8X2ESgWbDBqYPb2rQp-2" value="Назначение на лечение" style="endArrow=classic;html=1;rounded=0;edgeStyle=orthogonalEdgeStyle;entryX=0.68;entryY=-0.037;entryDx=0;entryDy=0;entryPerimeter=0;startArrow=classic;startFill=1;" parent="1" source="IhU7oc8Vnzvh6mDa7Yuc-20" target="hC8X2ESgWbDBqYPb2rQp-1" edge="1">
          <mxGeometry x="0.4" y="20" width="50" height="50" relative="1" as="geometry">
            <mxPoint x="1220" y="-400" as="sourcePoint" />
            <mxPoint x="1280" y="-420" as="targetPoint" />
            <Array as="points" />
            <mxPoint x="1" as="offset" />
          </mxGeometry>
        </mxCell>
        <mxCell id="Yz-OQ-Cju0Fl6STGerCs-1" value="Уведомление о готовности &lt;br&gt;результатов анализов" style="endArrow=classic;html=1;rounded=0;entryX=0;entryY=0.5;entryDx=0;entryDy=0;endFill=1;startArrow=classic;startFill=1;" parent="1" target="_ghf7tnCaNYiLIRfCHn--1" edge="1">
          <mxGeometry x="-0.3333" width="50" height="50" relative="1" as="geometry">
            <mxPoint x="567" y="-359" as="sourcePoint" />
            <mxPoint x="570" y="-598" as="targetPoint" />
            <Array as="points">
              <mxPoint x="567" y="-245" />
            </Array>
            <mxPoint as="offset" />
          </mxGeometry>
        </mxCell>
        <mxCell id="Yz-OQ-Cju0Fl6STGerCs-3" value="Назначение на обследование" style="endArrow=classic;html=1;rounded=0;edgeStyle=orthogonalEdgeStyle;entryX=0;entryY=0.5;entryDx=0;entryDy=0;exitX=1;exitY=0.5;exitDx=0;exitDy=0;startArrow=classic;startFill=1;" parent="1" source="zHWXq6wu1UEvpox1hKBq-5" target="hC8X2ESgWbDBqYPb2rQp-1" edge="1">
          <mxGeometry x="0.4" y="20" width="50" height="50" relative="1" as="geometry">
            <mxPoint x="1025" y="-350" as="sourcePoint" />
            <mxPoint x="955" y="-251" as="targetPoint" />
            <Array as="points" />
            <mxPoint x="1" as="offset" />
          </mxGeometry>
        </mxCell>
        <mxCell id="-ljJmyd_CcxY32u6c2fn-1" value="D3&amp;nbsp;&lt;span style=&quot;white-space: pre;&quot;&gt;   Расписание проц кабинета&lt;/span&gt;" style="html=1;dashed=0;whiteSpace=wrap;shape=mxgraph.dfd.dataStoreID;align=left;spacingLeft=3;points=[[0,0],[0.5,0],[1,0],[0,0.5],[1,0.5],[0,1],[0.5,1],[1,1]];" parent="1" vertex="1">
          <mxGeometry x="210" y="-260" width="180" height="30" as="geometry" />
        </mxCell>
        <mxCell id="-ljJmyd_CcxY32u6c2fn-2" value="Расписание&lt;br style=&quot;border-color: var(--border-color);&quot;&gt;процедурного кабинета" style="endArrow=classic;html=1;rounded=0;exitX=0;exitY=0.75;exitDx=0;exitDy=0;entryX=0.5;entryY=0;entryDx=0;entryDy=0;edgeStyle=orthogonalEdgeStyle;startArrow=classic;startFill=1;" parent="1" source="zHWXq6wu1UEvpox1hKBq-5" target="-ljJmyd_CcxY32u6c2fn-1" edge="1">
          <mxGeometry x="0.4164" y="-1" width="50" height="50" relative="1" as="geometry">
            <mxPoint x="516" y="-597" as="sourcePoint" />
            <mxPoint x="513" y="-460" as="targetPoint" />
            <mxPoint y="1" as="offset" />
          </mxGeometry>
        </mxCell>
        <mxCell id="O-VDBtQbuX7HgFtKmNkA-1" value="&lt;div style=&quot;text-align: center;&quot;&gt;&lt;span style=&quot;font-size: 18px;&quot;&gt;&lt;b&gt;MedTech. Data Flow&amp;nbsp;&lt;/b&gt;&lt;/span&gt;&lt;/div&gt;&lt;div style=&quot;text-align: center;&quot;&gt;&lt;span style=&quot;font-size: 18px;&quot;&gt;&lt;b&gt;Логическая диаграмма потоков данных&lt;/b&gt;&lt;/span&gt;&lt;/div&gt;" style="text;whiteSpace=wrap;html=1;" vertex="1" parent="1">
          <mxGeometry x="600" y="-720" width="450" height="40" as="geometry" />
        </mxCell>
      </root>
    </mxGraphModel>
  </diagram>
</mxfile>
